<?xml version="1.0" encoding="UTF-8" standalone="no"?>
<svg
   xmlns:dc="http://purl.org/dc/elements/1.1/"
   xmlns:cc="http://creativecommons.org/ns#"
   xmlns:rdf="http://www.w3.org/1999/02/22-rdf-syntax-ns#"
   xmlns:svg="http://www.w3.org/2000/svg"
   xmlns="http://www.w3.org/2000/svg"
   xmlns:sodipodi="http://sodipodi.sourceforge.net/DTD/sodipodi-0.dtd"
   xmlns:inkscape="http://www.inkscape.org/namespaces/inkscape"
   width="1052.3622"
   height="744.09448"
   id="svg4422"
   version="1.1"
   inkscape:version="0.91 r13725"
   sodipodi:docname="Front panel overlay.svg">
  <metadata
     id="metadata4504">
    <rdf:RDF>
      <cc:Work
         rdf:about="">
        <dc:format>image/svg+xml</dc:format>
        <dc:type
           rdf:resource="http://purl.org/dc/dcmitype/StillImage" />
        <dc:title></dc:title>
      </cc:Work>
    </rdf:RDF>
  </metadata>
  <sodipodi:namedview
     pagecolor="#ffffff"
     bordercolor="#666666"
     borderopacity="1"
     objecttolerance="10"
     gridtolerance="10"
     guidetolerance="10"
     inkscape:pageopacity="0"
     inkscape:pageshadow="2"
     inkscape:window-width="1366"
     inkscape:window-height="705"
     id="namedview4502"
     showgrid="true"
     inkscape:zoom="0.36313447"
     inkscape:cx="572.82872"
     inkscape:cy="570.93518"
     inkscape:window-x="-8"
     inkscape:window-y="-8"
     inkscape:window-maximized="1"
     inkscape:current-layer="g4440">
    <inkscape:grid
       type="xygrid"
       id="grid5058" />
  </sodipodi:namedview>
  <desc
     id="desc4424">C:\Users\PCJGG\Google Drive\PROYECTOS\_Lab psu\Mechanical\Front panel\Front panel dimensions.dxf - scale = 1.000000, origin = (0.000000, 0.000000), auto = False</desc>
  <defs
     id="defs4426">
    <marker
       refY="0"
       refX="0"
       style="overflow:visible"
       id="DistanceX"
       orient="auto">
      <path
         style="stroke:#000000;stroke-width:0.5"
         d="M 3,-3 -3,3 M 0,-5 0,5"
         id="path4429"
         inkscape:connector-curvature="0" />
    </marker>
    <pattern
       height="8"
       width="8"
       patternUnits="userSpaceOnUse"
       y="0"
       x="0"
       id="Hatch">
      <path
         linecap="square"
         stroke="#000000"
         stroke-width="0.25"
         d="M8 4 l-4,4"
         id="path4432" />
      <path
         linecap="square"
         stroke="#000000"
         stroke-width="0.25"
         d="M6 2 l-4,4"
         id="path4434" />
      <path
         linecap="square"
         stroke="#000000"
         stroke-width="0.25"
         d="M4 0 l-4,4"
         id="path4436" />
    </pattern>
    <symbol
       id="*MODEL_SPACE" />
    <symbol
       id="*PAPER_SPACE" />
    <marker
       orient="auto"
       id="DistanceX-0"
       style="overflow:visible"
       refX="0.0"
       refY="0.0">
      <path
         id="path5230"
         d="M 3,-3 L -3,3 M 0,-5 L  0,5"
         style="stroke:#000000; stroke-width:0.5" />
    </marker>
    <pattern
       id="Hatch-8"
       x="0"
       y="0"
       patternUnits="userSpaceOnUse"
       width="8"
       height="8">
      <path
         id="path5233"
         d="M8 4 l-4,4"
         stroke-width="0.25"
         stroke="#000000"
         linecap="square" />
      <path
         id="path5235"
         d="M6 2 l-4,4"
         stroke-width="0.25"
         stroke="#000000"
         linecap="square" />
      <path
         id="path5237"
         d="M4 0 l-4,4"
         stroke-width="0.25"
         stroke="#000000"
         linecap="square" />
    </pattern>
    <symbol
       id="*MODEL_SPACE-8" />
    <symbol
       id="*PAPER_SPACE-6" />
  </defs>
  <g
     inkscape:label="0"
     inkscape:groupmode="layer"
     id="g4440"
     transform="translate(0,-308.2677)">
    <text
       xml:space="preserve"
       style="font-style:normal;font-weight:normal;font-size:17.71653557px;line-height:125%;font-family:sans-serif;letter-spacing:0px;word-spacing:0px;fill:#000000;fill-opacity:1;stroke:none;stroke-width:1px;stroke-linecap:butt;stroke-linejoin:miter;stroke-opacity:1"
       x="190"
       y="712.36218"
       id="text5149"
       sodipodi:linespacing="125%"><tspan
         sodipodi:role="line"
         id="tspan5151"
         x="190"
         y="712.36218" /></text>
    <text
       xml:space="preserve"
       style="font-style:normal;font-weight:normal;font-size:17.71653557px;line-height:125%;font-family:sans-serif;letter-spacing:0px;word-spacing:0px;fill:#000000;fill-opacity:1;stroke:none;stroke-width:1px;stroke-linecap:butt;stroke-linejoin:miter;stroke-opacity:1"
       x="190"
       y="742.36218"
       id="text5179"
       sodipodi:linespacing="125%"><tspan
         sodipodi:role="line"
         id="tspan5181"
         x="190"
         y="742.36218" /></text>
    <rect
       y="242.14198"
       x="-80.361168"
       height="862.71283"
       width="1235.9784"
       id="rect6327"
       style="opacity:0.98000004;fill:#000000;fill-opacity:0.12941176;fill-rule:evenodd;stroke:none;stroke-width:1;stroke-linejoin:round;stroke-miterlimit:4;stroke-dasharray:none;stroke-opacity:0.30196078" />
    <g
       id="g6748"
       transform="translate(-3.850518,42.68925)">
      <path
         id="path5467"
         d="m 415.46357,471.95639 -301.18111,0 a 17.716535,17.716535 0 0 0 -17.716533,17.71653 l 0,255.11808 a 17.716535,17.716535 0 0 0 17.716533,17.7166 l 301.18111,0 A 17.716535,17.716535 0 0 0 433.1801,744.791 l 0,-255.11808 a 17.716535,17.716535 0 0 0 -17.71653,-17.71653 z"
         style="fill:#1fa5c2;fill-opacity:0.30196078;stroke:none"
         inkscape:connector-curvature="0" />
      <path
         id="path5469"
         d="m 574.91239,471.95639 -106.29922,0 a 17.716535,17.716535 0 0 0 -17.71653,17.71653 l 0,255.11808 a 17.716535,17.716535 0 0 0 17.71653,17.7166 l 106.29922,0 a 17.716535,17.716535 0 0 0 17.71653,-17.7166 l 0,-255.11808 a 17.716535,17.716535 0 0 0 -17.71653,-17.71653 z"
         style="fill:#1fa5c2;fill-opacity:0.30196078;stroke:none"
         inkscape:connector-curvature="0" />
      <path
         id="path5471"
         d="m 929.2431,471.95639 -301.18111,0 a 17.716535,17.716535 0 0 0 -17.71653,17.71653 l 0,255.11808 a 17.716535,17.716535 0 0 0 17.71653,17.7166 l 301.18111,0 a 17.716535,17.716535 0 0 0 17.71653,-17.7166 l 0,-255.11808 A 17.716535,17.716535 0 0 0 929.2431,471.95639 Z"
         style="fill:#1fa5c2;fill-opacity:0.30196078;stroke:none"
         inkscape:connector-curvature="0" />
      <path
         id="path5243"
         d="m 964.67617,482.58631 0,325.98429"
         style="fill:none;fill-opacity:0.30196078;stroke:#000000"
         inkscape:connector-curvature="0" />
      <path
         id="path5245"
         d="m 964.67617,808.5706 -885.826783,0"
         style="fill:none;fill-opacity:0.30196078;stroke:#000000"
         inkscape:connector-curvature="0" />
      <path
         id="path5247"
         d="m 78.849387,808.5706 0,-325.98429"
         style="fill:none;fill-opacity:0.30196078;stroke:#000000"
         inkscape:connector-curvature="0" />
      <path
         id="path5249"
         d="M 107.19585,454.23985 A 28.346457,28.346457 0 0 0 78.849387,482.58631"
         style="fill:none;fill-opacity:0.30196078;stroke:#000000"
         inkscape:connector-curvature="0" />
      <path
         id="path5251"
         d="M 964.67617,482.58631 A 28.346457,28.346457 0 0 0 936.32971,454.23985"
         style="fill:none;fill-opacity:0.30196078;stroke:#000000"
         inkscape:connector-curvature="0" />
      <path
         id="path5253"
         d="m 107.19585,454.23985 829.13386,0"
         style="fill:none;fill-opacity:0.30196078;stroke:#000000"
         inkscape:connector-curvature="0" />
      <path
         id="path5255"
         d="m 289.67617,514.47607 0,49.6063"
         style="fill:none;fill-opacity:0.30196078;stroke:#000000"
         inkscape:connector-curvature="0" />
      <path
         id="path5257"
         d="m 282.58955,571.16898 a 7.086614,7.086614 0 0 0 7.08662,-7.08661"
         style="fill:none;fill-opacity:0.30196078;stroke:#000000"
         inkscape:connector-curvature="0" />
      <path
         id="path5259"
         d="m 282.58955,571.16898 -106.29921,0"
         style="fill:none;fill-opacity:0.30196078;stroke:#000000"
         inkscape:connector-curvature="0" />
      <path
         id="path5261"
         d="m 169.20373,564.08237 a 7.086614,7.086614 0 0 0 7.08661,7.08661"
         style="fill:none;fill-opacity:0.30196078;stroke:#000000"
         inkscape:connector-curvature="0" />
      <path
         id="path5263"
         d="m 169.20373,564.08237 0,-49.6063"
         style="fill:none;fill-opacity:0.30196078;stroke:#000000"
         inkscape:connector-curvature="0" />
      <path
         id="path5265"
         d="m 176.29034,507.38946 a 7.086614,7.086614 0 0 0 -7.08661,7.08661"
         style="fill:none;fill-opacity:0.30196078;stroke:#000000"
         inkscape:connector-curvature="0" />
      <path
         id="path5267"
         d="m 289.67617,514.47607 a 7.086614,7.086614 0 0 0 -7.08662,-7.08661"
         style="fill:none;fill-opacity:0.30196078;stroke:#000000"
         inkscape:connector-curvature="0" />
      <path
         id="path5269"
         d="m 176.29034,507.38946 106.29921,0"
         style="fill:none;fill-opacity:0.30196078;stroke:#000000"
         inkscape:connector-curvature="0" />
      <path
         id="path5271"
         d="m 289.67617,599.5154 0,49.6063"
         style="fill:none;fill-opacity:0.30196078;stroke:#000000"
         inkscape:connector-curvature="0" />
      <path
         id="path5273"
         d="m 282.58955,656.2084 a 7.086614,7.086614 0 0 0 7.08662,-7.0867"
         style="fill:none;fill-opacity:0.30196078;stroke:#000000"
         inkscape:connector-curvature="0" />
      <path
         id="path5275"
         d="m 282.58955,656.2084 -106.29921,0"
         style="fill:none;fill-opacity:0.30196078;stroke:#000000"
         inkscape:connector-curvature="0" />
      <path
         id="path5277"
         d="m 169.20373,649.1217 a 7.086614,7.086614 0 0 0 7.08661,7.0867"
         style="fill:none;fill-opacity:0.30196078;stroke:#000000"
         inkscape:connector-curvature="0" />
      <path
         id="path5279"
         d="m 169.20373,649.1217 0,-49.6063"
         style="fill:none;fill-opacity:0.30196078;stroke:#000000"
         inkscape:connector-curvature="0" />
      <path
         id="path5281"
         d="m 176.29034,592.4288 a 7.086614,7.086614 0 0 0 -7.08661,7.0866"
         style="fill:none;fill-opacity:0.30196078;stroke:#000000"
         inkscape:connector-curvature="0" />
      <path
         id="path5283"
         d="m 289.67617,599.5154 a 7.086614,7.086614 0 0 0 -7.08662,-7.0866"
         style="fill:none;fill-opacity:0.30196078;stroke:#000000"
         inkscape:connector-curvature="0" />
      <path
         id="path5285"
         d="m 176.29034,592.4288 106.29921,0"
         style="fill:none;fill-opacity:0.30196078;stroke:#000000"
         inkscape:connector-curvature="0" />
      <path
         id="path5287"
         d="m 392.43207,611.917 0,24.8032"
         style="fill:none;fill-opacity:0.30196078;stroke:#000000"
         inkscape:connector-curvature="0" />
      <path
         id="path5289"
         d="m 388.88876,640.2635 a 3.543307,3.543307 0 0 0 3.54331,-3.5433"
         style="fill:none;fill-opacity:0.30196078;stroke:#000000"
         inkscape:connector-curvature="0" />
      <path
         id="path5291"
         d="m 388.88876,640.2635 -24.80314,0"
         style="fill:none;fill-opacity:0.30196078;stroke:#000000"
         inkscape:connector-curvature="0" />
      <path
         id="path5293"
         d="m 360.54231,636.7202 a 3.543307,3.543307 0 0 0 3.54331,3.5433"
         style="fill:none;fill-opacity:0.30196078;stroke:#000000"
         inkscape:connector-curvature="0" />
      <path
         id="path5295"
         d="m 360.54231,636.7202 0,-24.8032"
         style="fill:none;fill-opacity:0.30196078;stroke:#000000"
         inkscape:connector-curvature="0" />
      <path
         id="path5297"
         d="m 364.08562,608.3737 a 3.543307,3.543307 0 0 0 -3.54331,3.5433"
         style="fill:none;fill-opacity:0.30196078;stroke:#000000"
         inkscape:connector-curvature="0" />
      <path
         id="path5299"
         d="m 392.43207,611.917 a 3.543307,3.543307 0 0 0 -3.54331,-3.5433"
         style="fill:none;fill-opacity:0.30196078;stroke:#000000"
         inkscape:connector-curvature="0" />
      <path
         id="path5301"
         d="m 360.54231,551.68079 0,-24.80314"
         style="fill:none;fill-opacity:0.30196078;stroke:#000000"
         inkscape:connector-curvature="0" />
      <path
         id="path5303"
         d="m 364.08562,523.33434 a 3.543307,3.543307 0 0 0 -3.54331,3.54331"
         style="fill:none;fill-opacity:0.30196078;stroke:#000000"
         inkscape:connector-curvature="0" />
      <path
         id="path5305"
         d="m 364.08562,523.33434 24.80314,0"
         style="fill:none;fill-opacity:0.30196078;stroke:#000000"
         inkscape:connector-curvature="0" />
      <path
         id="path5307"
         d="m 392.43207,526.87765 a 3.543307,3.543307 0 0 0 -3.54331,-3.54331"
         style="fill:none;fill-opacity:0.30196078;stroke:#000000"
         inkscape:connector-curvature="0" />
      <path
         id="path5309"
         d="m 392.43207,526.87765 0,24.80314"
         style="fill:none;fill-opacity:0.30196078;stroke:#000000"
         inkscape:connector-curvature="0" />
      <path
         id="path5311"
         d="m 388.88876,555.2241 a 3.543307,3.543307 0 0 0 3.54331,-3.54331"
         style="fill:none;fill-opacity:0.30196078;stroke:#000000"
         inkscape:connector-curvature="0" />
      <path
         id="path5313"
         d="m 360.54231,551.68079 a 3.543307,3.543307 0 0 0 3.54331,3.54331"
         style="fill:none;fill-opacity:0.30196078;stroke:#000000"
         inkscape:connector-curvature="0" />
      <path
         id="path5315"
         d="m 388.88876,555.2241 -24.80314,0"
         style="fill:none;fill-opacity:0.30196078;stroke:#000000"
         inkscape:connector-curvature="0" />
      <path
         id="path5317"
         d="m 364.08562,608.3737 24.80314,0"
         style="fill:none;fill-opacity:0.30196078;stroke:#000000"
         inkscape:connector-curvature="0" />
      <path
         id="path5319"
         d="m 392.43207,696.9564 0,24.8031"
         style="fill:none;fill-opacity:0.30196078;stroke:#000000"
         inkscape:connector-curvature="0" />
      <path
         id="path5321"
         d="m 388.88876,725.3028 a 3.543307,3.543307 0 0 0 3.54331,-3.5433"
         style="fill:none;fill-opacity:0.30196078;stroke:#000000"
         inkscape:connector-curvature="0" />
      <path
         id="path5323"
         d="m 388.88876,725.3028 -24.80314,0"
         style="fill:none;fill-opacity:0.30196078;stroke:#000000"
         inkscape:connector-curvature="0" />
      <path
         id="path5325"
         d="m 360.54231,721.7595 a 3.543307,3.543307 0 0 0 3.54331,3.5433"
         style="fill:none;fill-opacity:0.30196078;stroke:#000000"
         inkscape:connector-curvature="0" />
      <path
         id="path5327"
         d="m 360.54231,721.7595 0,-24.8031"
         style="fill:none;fill-opacity:0.30196078;stroke:#000000"
         inkscape:connector-curvature="0" />
      <path
         id="path5329"
         d="m 364.08562,693.4131 a 3.543307,3.543307 0 0 0 -3.54331,3.5433"
         style="fill:none;fill-opacity:0.30196078;stroke:#000000"
         inkscape:connector-curvature="0" />
      <path
         id="path5331"
         d="m 392.43207,696.9564 a 3.543307,3.543307 0 0 0 -3.54331,-3.5433"
         style="fill:none;fill-opacity:0.30196078;stroke:#000000"
         inkscape:connector-curvature="0" />
      <path
         id="path5333"
         d="m 364.08562,693.4131 24.80314,0"
         style="fill:none;fill-opacity:0.30196078;stroke:#000000"
         inkscape:connector-curvature="0" />
      <path
         id="path5335"
         d="m 498.69197,656.7607 0,-21.2598"
         style="fill:none;fill-opacity:0.30196078;stroke:#000000"
         inkscape:connector-curvature="0" />
      <path
         id="path5337"
         d="m 498.69197,635.5009 a 5.314961,5.314961 0 0 0 -5.31496,-5.315"
         style="fill:none;fill-opacity:0.30196078;stroke:#000000"
         inkscape:connector-curvature="0" />
      <path
         id="path5339"
         d="m 493.37701,630.1859 -21.25984,0"
         style="fill:none;fill-opacity:0.30196078;stroke:#000000"
         inkscape:connector-curvature="0" />
      <path
         id="path5341"
         d="m 472.11717,630.1859 a 5.314961,5.314961 0 0 0 -5.31496,5.315"
         style="fill:none;fill-opacity:0.30196078;stroke:#000000"
         inkscape:connector-curvature="0" />
      <path
         id="path5343"
         d="m 466.80221,635.5009 0,21.2598"
         style="fill:none;fill-opacity:0.30196078;stroke:#000000"
         inkscape:connector-curvature="0" />
      <path
         id="path5345"
         d="m 466.80221,656.7607 a 5.314961,5.314961 0 0 0 5.31496,5.315"
         style="fill:none;fill-opacity:0.30196078;stroke:#000000"
         inkscape:connector-curvature="0" />
      <path
         id="path5347"
         d="m 493.37701,662.0757 a 5.314961,5.314961 0 0 0 5.31496,-5.315"
         style="fill:none;fill-opacity:0.30196078;stroke:#000000"
         inkscape:connector-curvature="0" />
      <path
         id="path5349"
         d="m 472.11717,662.0757 21.25984,0"
         style="fill:none;fill-opacity:0.30196078;stroke:#000000"
         inkscape:connector-curvature="0" />
      <path
         id="path5353"
         d="m 533.27853,546.36584 a 11.51575,11.51575 0 1 0 -23.0315,0 11.51575,11.51575 0 0 0 23.0315,0 z"
         style="fill:none;fill-opacity:0.30196078;stroke:#000000"
         inkscape:connector-curvature="0" />
      <path
         id="path5355"
         d="m 541.25097,709.358 a 19.48819,19.48819 0 1 0 -38.97638,0 19.48819,19.48819 0 0 0 38.97638,0 z"
         style="fill:none;fill-opacity:0.30196078;stroke:#000000"
         inkscape:connector-curvature="0" />
      <path
         id="path5357"
         d="m 665.26672,649.1217 0,-49.6063"
         style="fill:none;fill-opacity:0.30196078;stroke:#000000"
         inkscape:connector-curvature="0" />
      <path
         id="path5359"
         d="m 672.35333,592.4288 a 7.086614,7.086614 0 0 0 -7.08661,7.0866"
         style="fill:none;fill-opacity:0.30196078;stroke:#000000"
         inkscape:connector-curvature="0" />
      <path
         id="path5361"
         d="m 672.35333,592.4288 106.29921,0"
         style="fill:none;fill-opacity:0.30196078;stroke:#000000"
         inkscape:connector-curvature="0" />
      <path
         id="path5363"
         d="m 785.73916,599.5154 a 7.086614,7.086614 0 0 0 -7.08662,-7.0866"
         style="fill:none;fill-opacity:0.30196078;stroke:#000000"
         inkscape:connector-curvature="0" />
      <path
         id="path5365"
         d="m 785.73916,599.5154 0,49.6063"
         style="fill:none;fill-opacity:0.30196078;stroke:#000000"
         inkscape:connector-curvature="0" />
      <path
         id="path5367"
         d="m 778.65254,656.2084 a 7.086614,7.086614 0 0 0 7.08662,-7.0867"
         style="fill:none;fill-opacity:0.30196078;stroke:#000000"
         inkscape:connector-curvature="0" />
      <path
         id="path5369"
         d="m 665.26672,649.1217 a 7.086614,7.086614 0 0 0 7.08661,7.0867"
         style="fill:none;fill-opacity:0.30196078;stroke:#000000"
         inkscape:connector-curvature="0" />
      <path
         id="path5371"
         d="m 778.65254,656.2084 -106.29921,0"
         style="fill:none;fill-opacity:0.30196078;stroke:#000000"
         inkscape:connector-curvature="0" />
      <path
         id="path5373"
         d="m 665.26672,564.08237 0,-49.6063"
         style="fill:none;fill-opacity:0.30196078;stroke:#000000"
         inkscape:connector-curvature="0" />
      <path
         id="path5375"
         d="m 672.35333,507.38946 a 7.086614,7.086614 0 0 0 -7.08661,7.08661"
         style="fill:none;fill-opacity:0.30196078;stroke:#000000"
         inkscape:connector-curvature="0" />
      <path
         id="path5377"
         d="m 672.35333,507.38946 106.29921,0"
         style="fill:none;fill-opacity:0.30196078;stroke:#000000"
         inkscape:connector-curvature="0" />
      <path
         id="path5379"
         d="m 785.73916,514.47607 a 7.086614,7.086614 0 0 0 -7.08662,-7.08661"
         style="fill:none;fill-opacity:0.30196078;stroke:#000000"
         inkscape:connector-curvature="0" />
      <path
         id="path5381"
         d="m 785.73916,514.47607 0,49.6063"
         style="fill:none;fill-opacity:0.30196078;stroke:#000000"
         inkscape:connector-curvature="0" />
      <path
         id="path5383"
         d="m 778.65254,571.16898 a 7.086614,7.086614 0 0 0 7.08662,-7.08661"
         style="fill:none;fill-opacity:0.30196078;stroke:#000000"
         inkscape:connector-curvature="0" />
      <path
         id="path5385"
         d="m 665.26672,564.08237 a 7.086614,7.086614 0 0 0 7.08661,7.08661"
         style="fill:none;fill-opacity:0.30196078;stroke:#000000"
         inkscape:connector-curvature="0" />
      <path
         id="path5387"
         d="m 778.65254,571.16898 -106.29921,0"
         style="fill:none;fill-opacity:0.30196078;stroke:#000000"
         inkscape:connector-curvature="0" />
      <path
         id="path5389"
         d="m 711.24113,709.358 a 19.48819,19.48819 0 1 0 -38.97638,0 19.48819,19.48819 0 0 0 38.97638,0 z"
         style="fill:none;fill-opacity:0.30196078;stroke:#000000"
         inkscape:connector-curvature="0" />
      <path
         id="path5391"
         d="m 778.74113,709.358 a 19.48819,19.48819 0 1 0 -38.97638,0 19.48819,19.48819 0 0 0 38.97638,0 z"
         style="fill:none;fill-opacity:1;stroke:#000000"
         inkscape:connector-curvature="0" />
      <path
         id="path5393"
         d="m 848.63286,539.27922 a 11.51575,11.51575 0 1 0 -23.0315,0 11.51575,11.51575 0 0 0 23.0315,0 z"
         style="fill:none;fill-opacity:0.30196078;stroke:#000000"
         inkscape:connector-curvature="0" />
      <path
         id="path5395"
         d="m 856.6053,551.68079 0,-24.80314"
         style="fill:none;fill-opacity:0.30196078;stroke:#000000"
         inkscape:connector-curvature="0" />
      <path
         id="path5397"
         d="m 860.14861,523.33434 a 3.543307,3.543307 0 0 0 -3.54331,3.54331"
         style="fill:none;fill-opacity:0.30196078;stroke:#000000"
         inkscape:connector-curvature="0" />
      <path
         id="path5399"
         d="m 860.14861,523.33434 24.80315,0"
         style="fill:none;fill-opacity:0.30196078;stroke:#000000"
         inkscape:connector-curvature="0" />
      <path
         id="path5401"
         d="m 888.49506,526.87765 a 3.543307,3.543307 0 0 0 -3.5433,-3.54331"
         style="fill:none;fill-opacity:0.30196078;stroke:#000000"
         inkscape:connector-curvature="0" />
      <path
         id="path5403"
         d="m 888.49506,526.87765 0,24.80314"
         style="fill:none;fill-opacity:0.30196078;stroke:#000000"
         inkscape:connector-curvature="0" />
      <path
         id="path5405"
         d="m 884.95176,555.2241 a 3.543307,3.543307 0 0 0 3.5433,-3.54331"
         style="fill:none;fill-opacity:0.30196078;stroke:#000000"
         inkscape:connector-curvature="0" />
      <path
         id="path5407"
         d="m 856.6053,551.68079 a 3.543307,3.543307 0 0 0 3.54331,3.54331"
         style="fill:none;fill-opacity:0.30196078;stroke:#000000"
         inkscape:connector-curvature="0" />
      <path
         id="path5409"
         d="m 884.95176,555.2241 -24.80315,0"
         style="fill:none;fill-opacity:0.30196078;stroke:#000000"
         inkscape:connector-curvature="0" />
      <path
         id="path5411"
         d="m 856.6053,636.7202 0,-24.8032"
         style="fill:none;fill-opacity:0.30196078;stroke:#000000"
         inkscape:connector-curvature="0" />
      <path
         id="path5413"
         d="m 860.14861,608.3737 a 3.543307,3.543307 0 0 0 -3.54331,3.5433"
         style="fill:none;fill-opacity:0.30196078;stroke:#000000"
         inkscape:connector-curvature="0" />
      <path
         id="path5415"
         d="m 860.14861,608.3737 24.80315,0"
         style="fill:none;fill-opacity:0.30196078;stroke:#000000"
         inkscape:connector-curvature="0" />
      <path
         id="path5417"
         d="m 888.49506,611.917 a 3.543307,3.543307 0 0 0 -3.5433,-3.5433"
         style="fill:none;fill-opacity:0.30196078;stroke:#000000"
         inkscape:connector-curvature="0" />
      <path
         id="path5419"
         d="m 888.49506,611.917 0,24.8032"
         style="fill:none;fill-opacity:0.30196078;stroke:#000000"
         inkscape:connector-curvature="0" />
      <path
         id="path5421"
         d="m 884.95176,640.2635 a 3.543307,3.543307 0 0 0 3.5433,-3.5433"
         style="fill:none;fill-opacity:0.30196078;stroke:#000000"
         inkscape:connector-curvature="0" />
      <path
         id="path5423"
         d="m 856.6053,636.7202 a 3.543307,3.543307 0 0 0 3.54331,3.5433"
         style="fill:none;fill-opacity:0.30196078;stroke:#000000"
         inkscape:connector-curvature="0" />
      <path
         id="path5425"
         d="m 884.95176,640.2635 -24.80315,0"
         style="fill:none;fill-opacity:0.30196078;stroke:#000000"
         inkscape:connector-curvature="0" />
      <path
         id="path5427"
         d="m 856.6053,721.7595 0,-24.8031"
         style="fill:none;fill-opacity:0.30196078;stroke:#000000"
         inkscape:connector-curvature="0" />
      <path
         id="path5429"
         d="m 860.14861,693.4131 a 3.543307,3.543307 0 0 0 -3.54331,3.5433"
         style="fill:none;fill-opacity:0.30196078;stroke:#000000"
         inkscape:connector-curvature="0" />
      <path
         id="path5431"
         d="m 860.14861,693.4131 24.80315,0"
         style="fill:none;fill-opacity:0.30196078;stroke:#000000"
         inkscape:connector-curvature="0" />
      <path
         id="path5433"
         d="m 888.49506,696.9564 a 3.543307,3.543307 0 0 0 -3.5433,-3.5433"
         style="fill:none;fill-opacity:0.30196078;stroke:#000000"
         inkscape:connector-curvature="0" />
      <path
         id="path5435"
         d="m 888.49506,696.9564 0,24.8031"
         style="fill:none;fill-opacity:0.30196078;stroke:#000000"
         inkscape:connector-curvature="0" />
      <path
         id="path5437"
         d="m 884.95176,725.3028 a 3.543307,3.543307 0 0 0 3.5433,-3.5433"
         style="fill:none;fill-opacity:0.30196078;stroke:#000000"
         inkscape:connector-curvature="0" />
      <path
         id="path5439"
         d="m 856.6053,721.7595 a 3.543307,3.543307 0 0 0 3.54331,3.5433"
         style="fill:none;fill-opacity:0.30196078;stroke:#000000"
         inkscape:connector-curvature="0" />
      <path
         id="path5441"
         d="m 884.95176,725.3028 -24.80315,0"
         style="fill:none;fill-opacity:0.30196078;stroke:#000000"
         inkscape:connector-curvature="0" />
      <path
         id="path5443"
         d="m 213.40648,709.358 a 17.716536,17.716536 0 1 0 -35.43307,0 17.716536,17.716536 0 1 0 35.43307,0 z"
         style="fill:#060906;fill-opacity:1;stroke:#000000"
         inkscape:connector-curvature="0" />
      <path
         id="path5445"
         d="m 215.17813,709.358 a 19.488189,19.488189 0 1 0 -38.97637,0 19.488189,19.488189 0 1 0 38.97637,0 z"
         style="fill:none;fill-opacity:0.30196078;stroke:#000000"
         inkscape:connector-curvature="0" />
      <path
         id="path5447"
         d="m 282.67813,709.358 a 19.488189,19.488189 0 1 0 -38.97637,0 19.488189,19.488189 0 1 0 38.97637,0 z"
         style="fill:none;fill-opacity:1;stroke:#000000"
         inkscape:connector-curvature="0" />
      <path
         id="path5449"
         d="m 280.90648,709.358 a 17.716536,17.716536 0 1 0 -35.43307,0 17.716536,17.716536 0 1 0 35.43307,0 z"
         style="fill:#f50900;fill-opacity:1;stroke:#000000"
         inkscape:connector-curvature="0" />
      <path
         id="path5451"
         d="m 352.56987,624.3186 a 11.51575,11.51575 0 1 0 -23.0315,0 11.51575,11.51575 0 1 0 23.0315,0 z"
         style="fill:none;fill-opacity:0.30196078;stroke:#000000"
         inkscape:connector-curvature="0" />
      <path
         id="path5453"
         d="m 352.56987,539.27922 a 11.51575,11.51575 0 1 0 -23.0315,0 11.51575,11.51575 0 1 0 23.0315,0 z"
         style="fill:none;fill-opacity:0.30196078;stroke:#000000"
         inkscape:connector-curvature="0" />
      <path
         id="path5455"
         d="m 352.56987,709.358 a 11.51575,11.51575 0 1 0 -23.0315,0 11.51575,11.51575 0 1 0 23.0315,0 z"
         style="fill:none;fill-opacity:0.30196078;stroke:#000000"
         inkscape:connector-curvature="0" />
      <path
         id="path5457"
         d="m 537.70766,709.358 a 15.944882,15.944882 0 1 0 -31.88976,0 15.944882,15.944882 0 0 0 31.88976,0 z"
         style="fill:#52d346;fill-opacity:1;stroke:#000000"
         inkscape:connector-curvature="0" />
      <path
         id="path5459"
         d="m 709.46947,709.358 a 17.716536,17.716536 0 1 0 -35.43307,0 17.716536,17.716536 0 1 0 35.43307,0 z"
         style="fill:#060906;fill-opacity:1;stroke:#000000"
         inkscape:connector-curvature="0" />
      <path
         id="path5461"
         d="m 776.96947,709.358 a 17.716536,17.716536 0 1 0 -35.43307,0 17.716536,17.716536 0 1 0 35.43307,0 z"
         style="fill:#f50900;fill-opacity:1;stroke:#000000"
         inkscape:connector-curvature="0" />
      <path
         id="path5463"
         d="m 848.63286,624.3186 a 11.51575,11.51575 0 1 0 -23.0315,0 11.51575,11.51575 0 0 0 23.0315,0 z"
         style="fill:none;fill-opacity:0.30196078;stroke:#000000"
         inkscape:connector-curvature="0" />
      <path
         id="path5465"
         d="m 848.63286,709.358 a 11.51575,11.51575 0 1 0 -23.0315,0 11.51575,11.51575 0 0 0 23.0315,0 z"
         style="fill:none;fill-opacity:0.30196078;stroke:#000000"
         inkscape:connector-curvature="0" />
      <text
         transform="scale(1.1680293,0.85614291)"
         sodipodi:linespacing="125%"
         id="text4428-4-5"
         y="933.51508"
         x="225.40363"
         style="font-style:normal;font-weight:normal;font-size:20.69343185px;line-height:125%;font-family:sans-serif;letter-spacing:0px;word-spacing:0px;fill:#000000;fill-opacity:1;stroke:none;stroke-width:1px;stroke-linecap:butt;stroke-linejoin:miter;stroke-opacity:1"
         xml:space="preserve"><tspan
           style="font-style:normal;font-variant:normal;font-weight:normal;font-stretch:condensed;font-size:41.38686371px;font-family:'Agency FB';-inkscape-font-specification:'Agency FB Condensed'"
           y="933.51508"
           x="225.40363"
           id="tspan4430-8-0"
           sodipodi:role="line">JGG</tspan></text>
      <text
         sodipodi:linespacing="125%"
         id="text5103-7"
         y="792.13385"
         x="343.23227"
         style="font-style:normal;font-weight:normal;font-size:17.71653557px;line-height:125%;font-family:sans-serif;letter-spacing:0px;word-spacing:0px;fill:#000000;fill-opacity:1;stroke:none;stroke-width:1px;stroke-linecap:butt;stroke-linejoin:miter;stroke-opacity:1"
         xml:space="preserve"><tspan
           y="792.13385"
           x="343.23227"
           id="tspan5105-2"
           sodipodi:role="line">DUAL CHANNEL PROGRAMABLE DC POWER SUPPLY</tspan></text>
      <text
         sodipodi:linespacing="125%"
         id="text5107-3"
         y="493.76645"
         x="169.14404"
         style="font-style:normal;font-weight:normal;font-size:17.71653557px;line-height:125%;font-family:sans-serif;letter-spacing:0px;word-spacing:0px;fill:#000000;fill-opacity:1;stroke:none;stroke-width:1px;stroke-linecap:butt;stroke-linejoin:miter;stroke-opacity:1"
         xml:space="preserve"><tspan
           y="493.76645"
           x="169.14404"
           id="tspan5109-4"
           sodipodi:role="line">CHANNEL 1</tspan></text>
      <text
         sodipodi:linespacing="125%"
         id="text5107-3-6"
         y="491.92651"
         x="664.1452"
         style="font-style:normal;font-weight:normal;font-size:17.71653557px;line-height:125%;font-family:sans-serif;letter-spacing:0px;word-spacing:0px;fill:#000000;fill-opacity:1;stroke:none;stroke-width:1px;stroke-linecap:butt;stroke-linejoin:miter;stroke-opacity:1"
         xml:space="preserve"><tspan
           y="491.92651"
           x="664.1452"
           id="tspan5109-4-4"
           sodipodi:role="line">CHANNEL 2</tspan></text>
      <text
         sodipodi:linespacing="125%"
         id="text6389"
         y="491.40579"
         x="486.61197"
         style="font-style:normal;font-weight:normal;font-size:17.71653557px;line-height:125%;font-family:sans-serif;letter-spacing:0px;word-spacing:0px;fill:#000000;fill-opacity:1;stroke:none;stroke-width:1px;stroke-linecap:butt;stroke-linejoin:miter;stroke-opacity:1"
         xml:space="preserve"><tspan
           y="491.40579"
           x="486.61197"
           id="tspan6391"
           sodipodi:role="line">ADJUST</tspan></text>
      <path
         inkscape:connector-curvature="0"
         id="path5221-3"
         d="m 515.43294,753.05784 c -0.15345,-0.15911 -0.2632,-0.30556 -0.2439,-0.32544 0.0193,-0.0199 1.27901,-1.29178 2.79936,-2.82646 l 2.76426,-2.79031 -4.18591,-0.0211 -4.18591,-0.0211 -3.11046,3.10967 -3.11046,3.10967 -0.28494,-0.28495 -0.28495,-0.28494 3.23383,-3.23049 3.23384,-3.23049 4.48976,0 4.48975,0 0,-7.96758 0,-7.96759 0.36586,0 0.36586,0 0,7.96759 0,7.96758 5.26418,0 5.26418,0 -3.51363,3.51365 -3.51364,3.51363 -0.24646,-0.23612 c -0.13555,-0.12986 -0.24646,-0.26282 -0.24646,-0.29546 0,-0.0326 1.27136,-1.32399 2.82524,-2.86968 l 2.82525,-2.81035 -4.26835,-0.005 -4.26835,-0.005 -3.08948,3.13973 -3.08947,3.13972 -0.279,-0.28929 z"
         style="fill:#000000" />
      <text
         sodipodi:linespacing="125%"
         id="text5145-2"
         y="746.2793"
         x="177.90199"
         style="font-style:normal;font-weight:normal;font-size:14.17322826px;line-height:125%;font-family:sans-serif;letter-spacing:0px;word-spacing:0px;fill:#000000;fill-opacity:1;stroke:none;stroke-width:1px;stroke-linecap:butt;stroke-linejoin:miter;stroke-opacity:1"
         xml:space="preserve"><tspan
           y="746.2793"
           x="177.90199"
           id="tspan5147-4"
           sodipodi:role="line">30 V / 500 mA</tspan></text>
      <text
         transform="scale(1.4474339,0.69087783)"
         sodipodi:linespacing="125%"
         id="text4400-7"
         y="990.58337"
         x="129.1411"
         style="font-style:normal;font-weight:normal;font-size:25.20858002px;line-height:125%;font-family:sans-serif;letter-spacing:0px;word-spacing:0px;fill:#000000;fill-opacity:1;stroke:none;stroke-width:1px;stroke-linecap:butt;stroke-linejoin:miter;stroke-opacity:1"
         xml:space="preserve"><tspan
           y="990.58337"
           x="129.1411"
           id="tspan4402-4"
           sodipodi:role="line">-</tspan></text>
      <text
         sodipodi:linespacing="125%"
         id="text5157-4"
         y="683.73022"
         x="255.25719"
         style="font-style:normal;font-weight:normal;font-size:17.71653557px;line-height:125%;font-family:sans-serif;letter-spacing:0px;word-spacing:0px;fill:#000000;fill-opacity:1;stroke:none;stroke-width:1px;stroke-linecap:butt;stroke-linejoin:miter;stroke-opacity:1"
         xml:space="preserve"><tspan
           y="683.73022"
           x="255.25719"
           id="tspan5159-2"
           sodipodi:role="line">+</tspan></text>
      <text
         sodipodi:linespacing="125%"
         id="text5183-3"
         y="542.38538"
         x="299.16202"
         style="font-style:normal;font-weight:normal;font-size:17.71653557px;line-height:125%;font-family:sans-serif;letter-spacing:0px;word-spacing:0px;fill:#000000;fill-opacity:1;stroke:none;stroke-width:1px;stroke-linecap:butt;stroke-linejoin:miter;stroke-opacity:1"
         xml:space="preserve"><tspan
           y="542.38538"
           x="299.16202"
           id="tspan5185-4"
           sodipodi:role="line">V</tspan></text>
      <text
         sodipodi:linespacing="125%"
         id="text5187-7"
         y="627.49591"
         x="293.44348"
         style="font-style:normal;font-weight:normal;font-size:17.71653557px;line-height:125%;font-family:sans-serif;letter-spacing:0px;word-spacing:0px;fill:#000000;fill-opacity:1;stroke:none;stroke-width:1px;stroke-linecap:butt;stroke-linejoin:miter;stroke-opacity:1"
         xml:space="preserve"><tspan
           y="627.49591"
           x="293.44348"
           id="tspan5189-6"
           sodipodi:role="line">mA</tspan></text>
      <text
         sodipodi:linespacing="125%"
         id="text6516"
         y="652.31"
         x="294.29227"
         style="font-style:normal;font-weight:normal;font-size:10.62992096px;line-height:125%;font-family:sans-serif;letter-spacing:0px;word-spacing:0px;fill:#000000;fill-opacity:1;stroke:none;stroke-width:1px;stroke-linecap:butt;stroke-linejoin:miter;stroke-opacity:1"
         xml:space="preserve"><tspan
           y="652.31"
           x="294.29227"
           id="tspan6518"
           sodipodi:role="line">CC</tspan></text>
      <text
         sodipodi:linespacing="125%"
         id="text6520"
         y="716.17236"
         x="398.73996"
         style="font-style:normal;font-weight:normal;font-size:17.71653557px;line-height:125%;font-family:sans-serif;letter-spacing:0px;word-spacing:0px;fill:#000000;fill-opacity:1;stroke:none;stroke-width:1px;stroke-linecap:butt;stroke-linejoin:miter;stroke-opacity:1"
         xml:space="preserve"><tspan
           y="716.17236"
           x="398.73996"
           id="tspan6522"
           sodipodi:role="line">ON</tspan></text>
      <text
         sodipodi:linespacing="125%"
         id="text6524"
         y="684.29657"
         x="214.55173"
         style="font-style:normal;font-weight:normal;font-size:14.17322826px;line-height:125%;font-family:sans-serif;letter-spacing:0px;word-spacing:0px;fill:#000000;fill-opacity:1;stroke:none;stroke-width:1px;stroke-linecap:butt;stroke-linejoin:miter;stroke-opacity:1"
         xml:space="preserve"><tspan
           y="684.29657"
           x="214.55173"
           id="tspan6526"
           sodipodi:role="line">OUT</tspan></text>
      <text
         sodipodi:linespacing="125%"
         id="text5145-2-1"
         y="744.55505"
         x="675.16492"
         style="font-style:normal;font-weight:normal;font-size:14.17322826px;line-height:125%;font-family:sans-serif;letter-spacing:0px;word-spacing:0px;fill:#000000;fill-opacity:1;stroke:none;stroke-width:1px;stroke-linecap:butt;stroke-linejoin:miter;stroke-opacity:1"
         xml:space="preserve"><tspan
           y="744.55505"
           x="675.16492"
           id="tspan5147-4-3"
           sodipodi:role="line">30 V / 500 mA</tspan></text>
      <text
         transform="scale(1.4474339,0.69087783)"
         sodipodi:linespacing="125%"
         id="text4400-7-3"
         y="988.08771"
         x="471.16812"
         style="font-style:normal;font-weight:normal;font-size:25.20858002px;line-height:125%;font-family:sans-serif;letter-spacing:0px;word-spacing:0px;fill:#000000;fill-opacity:1;stroke:none;stroke-width:1px;stroke-linecap:butt;stroke-linejoin:miter;stroke-opacity:1"
         xml:space="preserve"><tspan
           y="988.08771"
           x="471.16812"
           id="tspan4402-4-8"
           sodipodi:role="line">-</tspan></text>
      <text
         sodipodi:linespacing="125%"
         id="text5157-4-2"
         y="682.00598"
         x="750.31866"
         style="font-style:normal;font-weight:normal;font-size:17.71653557px;line-height:125%;font-family:sans-serif;letter-spacing:0px;word-spacing:0px;fill:#000000;fill-opacity:1;stroke:none;stroke-width:1px;stroke-linecap:butt;stroke-linejoin:miter;stroke-opacity:1"
         xml:space="preserve"><tspan
           y="682.00598"
           x="750.31866"
           id="tspan5159-2-1"
           sodipodi:role="line">+</tspan></text>
      <text
         sodipodi:linespacing="125%"
         id="text5183-3-0"
         y="542.49567"
         x="793.85657"
         style="font-style:normal;font-weight:normal;font-size:17.71653557px;line-height:125%;font-family:sans-serif;letter-spacing:0px;word-spacing:0px;fill:#000000;fill-opacity:1;stroke:none;stroke-width:1px;stroke-linecap:butt;stroke-linejoin:miter;stroke-opacity:1"
         xml:space="preserve"><tspan
           y="542.49567"
           x="793.85657"
           id="tspan5185-4-0"
           sodipodi:role="line">V</tspan></text>
      <text
         sodipodi:linespacing="125%"
         id="text5187-7-1"
         y="627.6062"
         x="788.13806"
         style="font-style:normal;font-weight:normal;font-size:17.71653557px;line-height:125%;font-family:sans-serif;letter-spacing:0px;word-spacing:0px;fill:#000000;fill-opacity:1;stroke:none;stroke-width:1px;stroke-linecap:butt;stroke-linejoin:miter;stroke-opacity:1"
         xml:space="preserve"><tspan
           y="627.6062"
           x="788.13806"
           id="tspan5189-6-9"
           sodipodi:role="line">mA</tspan></text>
      <text
         sodipodi:linespacing="125%"
         id="text6516-4"
         y="652.05341"
         x="789.35376"
         style="font-style:normal;font-weight:normal;font-size:10.62992096px;line-height:125%;font-family:sans-serif;letter-spacing:0px;word-spacing:0px;fill:#000000;fill-opacity:1;stroke:none;stroke-width:1px;stroke-linecap:butt;stroke-linejoin:miter;stroke-opacity:1"
         xml:space="preserve"><tspan
           y="652.05341"
           x="789.35376"
           id="tspan6518-6"
           sodipodi:role="line">CC</tspan></text>
      <text
         sodipodi:linespacing="125%"
         id="text6520-8"
         y="716.64966"
         x="894.16833"
         style="font-style:normal;font-weight:normal;font-size:17.71653557px;line-height:125%;font-family:sans-serif;letter-spacing:0px;word-spacing:0px;fill:#000000;fill-opacity:1;stroke:none;stroke-width:1px;stroke-linecap:butt;stroke-linejoin:miter;stroke-opacity:1"
         xml:space="preserve"><tspan
           y="716.64966"
           x="894.16833"
           id="tspan6522-0"
           sodipodi:role="line">ON</tspan></text>
      <text
         sodipodi:linespacing="125%"
         id="text6524-0"
         y="682.83179"
         x="709.61322"
         style="font-style:normal;font-weight:normal;font-size:14.17322826px;line-height:125%;font-family:sans-serif;letter-spacing:0px;word-spacing:0px;fill:#000000;fill-opacity:1;stroke:none;stroke-width:1px;stroke-linecap:butt;stroke-linejoin:miter;stroke-opacity:1"
         xml:space="preserve"><tspan
           y="682.83179"
           x="709.61322"
           id="tspan6526-1"
           sodipodi:role="line">OUT</tspan></text>
      <text
         sodipodi:linespacing="125%"
         id="text6744"
         y="652.56183"
         x="507.92447"
         style="font-style:normal;font-weight:normal;font-size:17.71653557px;line-height:125%;font-family:sans-serif;letter-spacing:0px;word-spacing:0px;fill:#000000;fill-opacity:1;stroke:none;stroke-width:1px;stroke-linecap:butt;stroke-linejoin:miter;stroke-opacity:1"
         xml:space="preserve"><tspan
           y="652.56183"
           x="507.92447"
           id="tspan6746"
           sodipodi:role="line">MENU</tspan></text>
    </g>
  </g>
</svg>
